<svg width="28" height="49" viewBox="0 0 28 49" fill="none" xmlns="http://www.w3.org/2000/svg">
<path d="M6.16288 8.21895C5.88674 8.21893 5.66286 8.44276 5.66283 8.7189C5.6628 8.99504 5.88663 9.21893 6.16278 9.21895L6.16283 8.71895L6.16288 8.21895ZM15.7657 9.21912C16.0418 9.21912 16.2657 8.99526 16.2657 8.71912C16.2657 8.44298 16.0418 8.21912 15.7657 8.21912V8.71912V9.21912ZM7.76536 22.47L7.91729 22.9463L8.26536 22.8353V22.47H7.76536ZM14.4153 22.5603H13.9153V22.9153L14.2504 23.0323L14.4153 22.5603ZM2.31528 48C2.03914 48 1.81528 48.2239 1.81528 48.5C1.81528 48.7761 2.03914 49 2.31528 49V48.5V48ZM25.6065 48.5V49C25.8826 49 26.1065 48.7761 26.1065 48.5H25.6065ZM26.1065 3.03614C26.1065 2.75999 25.8826 2.53614 25.6065 2.53614C25.3304 2.53614 25.1065 2.75999 25.1065 3.03614H25.6065H26.1065ZM16.2436 14.3616V13.8616C16.1999 13.8616 16.1564 13.8673 16.1142 13.8786L16.2436 14.3616ZM6.22028 13.8833C5.95615 13.8028 5.67673 13.9516 5.59619 14.2158C5.51565 14.4799 5.66449 14.7593 5.92863 14.8398L6.07445 14.3616L6.22028 13.8833ZM23.5491 30.9308C23.273 30.9308 23.0491 31.1547 23.0491 31.4308C23.0491 31.7069 23.273 31.9308 23.5491 31.9308V31.4308V30.9308ZM27.5 31.9308C27.7761 31.9308 28 31.7069 28 31.4308C28 31.1547 27.7761 30.9308 27.5 30.9308V31.4308V31.9308ZM1.11993 31.5611L0.788819 31.9358C0.813501 31.9576 0.840277 31.9769 0.868759 31.9935L1.11993 31.5611ZM20.3684 31.5611L20.6196 31.9935C20.6424 31.9802 20.664 31.9652 20.6845 31.9486L20.3684 31.5611ZM21.2898 30.8097L21.784 30.7339L21.2898 30.8097ZM7.76536 8.71912V9.21912H14.4153V8.71912V8.21912H7.76536V8.71912ZM7.76536 8.71912L7.76541 8.21912L6.16288 8.21895L6.16283 8.71895L6.16278 9.21895L7.76531 9.21912L7.76536 8.71912ZM14.4153 8.71912V9.21912H15.7657V8.71912V8.21912H14.4153V8.71912ZM21.4102 32.3966H20.9102C20.9102 37.8739 16.4547 42.317 10.9551 42.317V42.817V43.317C17.0039 43.317 21.9102 38.4293 21.9102 32.3966H21.4102ZM7.76536 22.47H8.26536V8.71912H7.76536H7.26536V22.47H7.76536ZM14.4153 8.71912H13.9153V22.5603H14.4153H14.9153V8.71912H14.4153ZM10.9551 42.817V42.317C5.45549 42.317 1 37.8739 1 32.3966H0.5H0C0 38.4293 4.90634 43.317 10.9551 43.317V42.817ZM2.31528 48.5V49H25.6065V48.5V48H2.31528V48.5ZM25.6065 14.3616H26.1065V3.03614H25.6065H25.1065V14.3616H25.6065ZM25.6065 14.3616V13.8616H16.2436V14.3616V14.8616H25.6065V14.3616ZM16.2436 14.3616L16.1142 13.8786C12.393 14.8762 9.87979 14.9992 6.22028 13.8833L6.07445 14.3616L5.92863 14.8398C9.8017 16.0208 12.5095 15.8802 16.3731 14.8445L16.2436 14.3616ZM25.6065 48.5H26.1065V31.4308H25.6065H25.1065V48.5H25.6065ZM25.6065 31.4308H26.1065V14.3616H25.6065H25.1065V31.4308H25.6065ZM25.6065 31.4308V30.9308H23.5491V31.4308V31.9308H25.6065V31.4308ZM25.6065 31.4308V31.9308H27.5V31.4308V30.9308H25.6065V31.4308ZM1.11993 31.5611L0.868759 31.9935C0.931913 32.0302 1.04971 32.1197 1.24444 32.2718C1.42394 32.4121 1.64642 32.587 1.8831 32.7551C2.11898 32.9226 2.38231 33.093 2.64926 33.2229C2.90904 33.3493 3.21495 33.459 3.52599 33.459V32.959V32.459C3.43603 32.459 3.2908 32.423 3.08692 32.3237C2.89019 32.228 2.67733 32.0926 2.46206 31.9397C2.24761 31.7875 2.04402 31.6275 1.8601 31.4838C1.69142 31.352 1.50846 31.2086 1.3711 31.1288L1.11993 31.5611ZM3.52599 32.959V33.459C3.86911 33.459 4.1682 33.3113 4.40106 33.1591C4.636 33.0055 4.86343 32.8061 5.05752 32.637C5.26444 32.4567 5.43802 32.3066 5.60409 32.1981C5.77224 32.0882 5.87416 32.0611 5.93206 32.0611V31.5611V31.0611C5.58894 31.0611 5.28985 31.2088 5.05699 31.361C4.82205 31.5146 4.59462 31.714 4.40053 31.8831C4.19361 32.0634 4.02003 32.2135 3.85396 32.322C3.68581 32.4319 3.58389 32.459 3.52599 32.459V32.959ZM5.93206 31.5611V32.0611C5.98995 32.0611 6.09187 32.0882 6.26002 32.1981C6.42609 32.3066 6.59968 32.4567 6.8066 32.637C7.00069 32.8061 7.22811 33.0055 7.46306 33.1591C7.69591 33.3113 7.995 33.459 8.33812 33.459V32.959V32.459C8.28023 32.459 8.17831 32.4319 8.01015 32.322C7.84409 32.2135 7.6705 32.0634 7.46358 31.8831C7.26949 31.714 7.04207 31.5146 6.80712 31.361C6.57427 31.2088 6.27517 31.0611 5.93206 31.0611V31.5611ZM8.33812 32.959V33.459C8.68124 33.459 8.98033 33.3113 9.21318 33.1591C9.44813 33.0055 9.67555 32.8061 9.86965 32.637C10.0766 32.4567 10.2501 32.3066 10.4162 32.1981C10.5844 32.0882 10.6863 32.0611 10.7442 32.0611V31.5611V31.0611C10.4011 31.0611 10.102 31.2088 9.86912 31.361C9.63418 31.5146 9.40675 31.714 9.21266 31.8831C9.00574 32.0634 8.83215 32.2135 8.66609 32.322C8.49793 32.4319 8.39601 32.459 8.33812 32.459V32.959ZM10.7442 31.5611V32.0611C10.8021 32.0611 10.904 32.0882 11.0722 32.1981C11.2382 32.3066 11.4118 32.4567 11.6187 32.637C11.8128 32.8061 12.0402 33.0055 12.2752 33.1591C12.508 33.3113 12.8071 33.459 13.1502 33.459V32.959V32.459C13.0924 32.459 12.9904 32.4319 12.8223 32.322C12.6562 32.2135 12.4826 32.0634 12.2757 31.8831C12.0816 31.714 11.8542 31.5146 11.6192 31.361C11.3864 31.2088 11.0873 31.0611 10.7442 31.0611V31.5611ZM13.1502 32.959V33.459C13.4934 33.459 13.7925 33.3113 14.0253 33.1591C14.2603 33.0055 14.4877 32.8061 14.6818 32.637C14.8887 32.4567 15.0623 32.3066 15.2283 32.1981C15.3965 32.0882 15.4984 32.0611 15.5563 32.0611V31.5611V31.0611C15.2132 31.0611 14.9141 31.2088 14.6812 31.361C14.4463 31.5146 14.2189 31.714 14.0248 31.8831C13.8179 32.0634 13.6443 32.2135 13.4782 32.322C13.3101 32.4319 13.2081 32.459 13.1502 32.459V32.959ZM15.5563 31.5611V32.0611C15.6142 32.0611 15.7161 32.0882 15.8843 32.1981C16.0503 32.3066 16.2239 32.4567 16.4308 32.637C16.6249 32.8061 16.8524 33.0055 17.0873 33.1591C17.3202 33.3113 17.6193 33.459 17.9624 33.459V32.959V32.459C17.9045 32.459 17.8026 32.4319 17.6344 32.322C17.4683 32.2135 17.2948 32.0634 17.0878 31.8831C16.8937 31.714 16.6663 31.5146 16.4314 31.361C16.1985 31.2088 15.8994 31.0611 15.5563 31.0611V31.5611ZM17.9624 32.959V33.459C18.2734 33.459 18.5793 33.3493 18.8391 33.2229C19.1061 33.093 19.3694 32.9226 19.6053 32.7551C19.8419 32.587 20.0644 32.4121 20.2439 32.2718C20.4387 32.1197 20.5565 32.0302 20.6196 31.9935L20.3684 31.5611L20.1173 31.1288C19.9799 31.2086 19.7969 31.352 19.6283 31.4838C19.4443 31.6275 19.2408 31.7875 19.0263 31.9397C18.811 32.0926 18.5982 32.228 18.4014 32.3237C18.1976 32.423 18.0523 32.459 17.9624 32.459V32.959ZM14.4153 22.5603L14.2504 23.0323C17.6697 24.2272 20.2351 27.2293 20.7956 30.8855L21.2898 30.8097L21.784 30.7339C21.1663 26.7046 18.3415 23.4026 14.5802 22.0883L14.4153 22.5603ZM21.2898 30.8097L20.7956 30.8855C20.871 31.3779 20.9102 31.8825 20.9102 32.3966H21.4102H21.9102C21.9102 31.8316 21.8672 31.2763 21.784 30.7339L21.2898 30.8097ZM20.3684 31.5611L20.6845 31.9486L21.6058 31.1972L21.2898 30.8097L20.9738 30.4222L20.0524 31.1737L20.3684 31.5611ZM0.5 32.3966H1C1 31.9735 1.02655 31.5569 1.07802 31.1481L0.581936 31.0857L0.0858545 31.0232C0.0291764 31.4732 0 31.9316 0 32.3966H0.5ZM0.581936 31.0857L1.07802 31.1481C1.56498 27.2813 4.28735 24.1041 7.91729 22.9463L7.76536 22.47L7.61343 21.9936C3.6203 23.2672 0.622505 26.7619 0.0858545 31.0232L0.581936 31.0857ZM1.11993 31.5611L1.45104 31.1865L0.913048 30.711L0.581936 31.0857L0.250824 31.4603L0.788819 31.9358L1.11993 31.5611ZM10.4941 39.6037H9.99408C9.99408 39.5875 10.0068 39.5773 10.0189 39.5773V40.0773V40.5773C10.5559 40.5773 10.9941 40.1429 10.9941 39.6037H10.4941ZM10.0189 40.0773V39.5773C10.0311 39.5773 10.0438 39.5875 10.0438 39.6037H9.54376H9.04376C9.04376 40.1429 9.48192 40.5773 10.0189 40.5773V40.0773ZM9.54376 39.6037H10.0438C10.0438 39.6198 10.0311 39.6301 10.0189 39.6301V39.1301V38.6301C9.48192 38.6301 9.04376 39.0644 9.04376 39.6037H9.54376ZM10.0189 39.1301V39.6301C10.0068 39.6301 9.99408 39.6198 9.99408 39.6037H10.4941H10.9941C10.9941 39.0644 10.5559 38.6301 10.0189 38.6301V39.1301ZM6.1694 36.6702H5.6694C5.6694 36.654 5.68209 36.6437 5.69425 36.6437V37.1437V37.6437C6.23124 37.6437 6.6694 37.2094 6.6694 36.6702H6.1694ZM5.69425 37.1437V36.6437C5.7064 36.6437 5.71909 36.654 5.71909 36.6702H5.21909H4.71909C4.71909 37.2094 5.15725 37.6437 5.69425 37.6437V37.1437ZM5.21909 36.6702H5.71909C5.71909 36.6863 5.7064 36.6966 5.69425 36.6966V36.1966V35.6966C5.15725 35.6966 4.71909 36.1309 4.71909 36.6702H5.21909ZM5.69425 36.1966V36.6966C5.68209 36.6966 5.6694 36.6863 5.6694 36.6702H6.1694H6.6694C6.6694 36.1309 6.23124 35.6966 5.69425 35.6966V36.1966ZM12.5116 35.723H12.0116C12.0116 35.7068 12.0243 35.6966 12.0365 35.6966V36.1966V36.6966C12.5735 36.6966 13.0116 36.2623 13.0116 35.723H12.5116ZM12.0365 36.1966V35.6966C12.0486 35.6966 12.0613 35.7068 12.0613 35.723H11.5613H11.0613C11.0613 36.2623 11.4995 36.6966 12.0365 36.6966V36.1966ZM11.5613 35.723H12.0613C12.0613 35.7392 12.0486 35.7494 12.0365 35.7494V35.2494V34.7494C11.4995 34.7494 11.0613 35.1837 11.0613 35.723H11.5613ZM12.0365 35.2494V35.7494C12.0243 35.7494 12.0116 35.7392 12.0116 35.723H12.5116H13.0116C13.0116 35.1837 12.5735 34.7494 12.0365 34.7494V35.2494ZM17.2075 36.6702H16.7075C16.7075 36.654 16.7202 36.6437 16.7324 36.6437V37.1437V37.6437C17.2694 37.6437 17.7075 37.2094 17.7075 36.6702H17.2075ZM16.7324 37.1437V36.6437C16.7445 36.6437 16.7572 36.654 16.7572 36.6702H16.2572H15.7572C15.7572 37.2094 16.1954 37.6437 16.7324 37.6437V37.1437ZM16.2572 36.6702H16.7572C16.7572 36.6863 16.7445 36.6966 16.7324 36.6966V36.1966V35.6966C16.1954 35.6966 15.7572 36.1309 15.7572 36.6702H16.2572ZM16.7324 36.1966V36.6966C16.7202 36.6966 16.7075 36.6863 16.7075 36.6702H17.2075H17.7075C17.7075 36.1309 17.2694 35.6966 16.7324 35.6966V36.1966ZM11.6945 6.0265H11.1945C11.1945 6.01035 11.2072 6.00008 11.2193 6.00008V6.50008V7.00008C11.7563 7.00008 12.1945 6.56576 12.1945 6.0265H11.6945ZM11.2193 6.50008V6.00008C11.2315 6.00008 11.2442 6.01035 11.2442 6.0265H10.7442H10.2442C10.2442 6.56576 10.6823 7.00008 11.2193 7.00008V6.50008ZM10.7442 6.0265H11.2442C11.2442 6.04266 11.2315 6.05292 11.2193 6.05292V5.55292V5.05292C10.6823 5.05292 10.2442 5.48724 10.2442 6.0265H10.7442ZM11.2193 5.55292V6.05292C11.2072 6.05292 11.1945 6.04266 11.1945 6.0265H11.6945H12.1945C12.1945 5.48724 11.7563 5.05292 11.2193 5.05292V5.55292ZM12.5757 0.973582H12.0757C12.0757 0.957428 12.0884 0.947164 12.1006 0.947164V1.44716V1.94716C12.6376 1.94716 13.0757 1.51284 13.0757 0.973582H12.5757ZM12.1006 1.44716V0.947164C12.1127 0.947164 12.1254 0.957428 12.1254 0.973582H11.6254H11.1254C11.1254 1.51284 11.5636 1.94716 12.1006 1.94716V1.44716ZM11.6254 0.973582H12.1254C12.1254 0.989736 12.1127 1 12.1006 1V0.5V0C11.5636 0 11.1254 0.434324 11.1254 0.973582H11.6254ZM12.1006 0.5V1C12.0884 1 12.0757 0.989736 12.0757 0.973582H12.5757H13.0757C13.0757 0.434324 12.6376 0 12.1006 0V0.5ZM9.6501 3.03614H9.1501C9.1501 3.01998 9.16279 3.00972 9.17495 3.00972V3.50972V4.00972C9.71194 4.00972 10.1501 3.5754 10.1501 3.03614H9.6501ZM9.17495 3.50972V3.00972C9.1871 3.00972 9.19979 3.01998 9.19979 3.03614H8.69979H8.19979C8.19979 3.5754 8.63795 4.00972 9.17495 4.00972V3.50972ZM8.69979 3.03614H9.19979C9.19979 3.05229 9.1871 3.06256 9.17495 3.06256V2.56256V2.06256C8.63795 2.06256 8.19979 2.49688 8.19979 3.03614H8.69979ZM9.17495 2.56256V3.06256C9.16279 3.06256 9.1501 3.05229 9.1501 3.03614H9.6501H10.1501C10.1501 2.49688 9.71194 2.06256 9.17495 2.06256V2.56256Z" fill="white"/>
</svg>
