<svg width="20" height="20" viewBox="0 0 20 20" fill="none" xmlns="http://www.w3.org/2000/svg">
<path d="M14.9998 5.0018C14.8436 4.84558 14.6317 4.75781 14.4107 4.75781C14.1897 4.75781 13.9778 4.84558 13.8215 5.0018L9.99985 8.82347L6.17818 5.0018C6.02191 4.84558 5.80998 4.75781 5.58901 4.75781C5.36804 4.75781 5.15612 4.84558 4.99985 5.0018C4.84362 5.15807 4.75586 5.37 4.75586 5.59097C4.75586 5.81194 4.84362 6.02386 4.99985 6.18013L8.82152 10.0018L4.99985 13.8235C4.84362 13.9797 4.75586 14.1917 4.75586 14.4126C4.75586 14.6336 4.84362 14.8455 4.99985 15.0018C5.15612 15.158 5.36804 15.2458 5.58901 15.2458C5.80998 15.2458 6.02191 15.158 6.17818 15.0018L9.99985 11.1801L13.8215 15.0018C13.9778 15.158 14.1897 15.2458 14.4107 15.2458C14.6317 15.2458 14.8436 15.158 14.9998 15.0018C15.1561 14.8455 15.2438 14.6336 15.2438 14.4126C15.2438 14.1917 15.1561 13.9797 14.9998 13.8235L11.1782 10.0018L14.9998 6.18013C15.1561 6.02386 15.2438 5.81194 15.2438 5.59097C15.2438 5.37 15.1561 5.15807 14.9998 5.0018Z" fill="#3457DC"/>
</svg>
