<svg width="40" height="40" viewBox="0 0 40 40" fill="none" xmlns="http://www.w3.org/2000/svg">
<g clip-path="url(#clip0_5680_321317)">
<path d="M38.9001 15.8013L33.0667 5.8013C31.5784 3.2513 28.8217 1.66797 25.8684 1.66797H14.0817C11.1301 1.66797 8.37172 3.2513 6.88339 5.8013L1.05172 15.8013C-0.459948 18.3913 -0.459948 21.6096 1.05172 24.1996L6.88505 34.1996C8.37339 36.7496 11.1301 38.333 14.0834 38.333H25.8701C28.8217 38.333 31.5801 36.7496 33.0684 34.1996L38.9017 24.1996C40.4134 21.6096 40.4117 18.3913 38.9001 15.8013ZM36.0201 22.5196L30.1867 32.5196C29.2934 34.0496 27.6401 34.9996 25.8684 34.9996H14.0817C12.3101 34.9996 10.6551 34.0496 9.76339 32.5196L3.93005 22.5196C3.02339 20.9646 3.02339 19.0346 3.93005 17.4813L9.76339 7.4813C10.6567 5.9513 12.3101 5.0013 14.0817 5.0013H25.8684C27.6401 5.0013 29.2951 5.9513 30.1867 7.4813L36.0201 17.4813C36.9267 19.0363 36.9267 20.9663 36.0201 22.5196ZM18.3317 20.833V11.6663C18.3317 10.7446 19.0784 9.99964 19.9984 9.99964C20.9184 9.99964 21.6651 10.7446 21.6651 11.6663V20.833C21.6651 21.7546 20.9184 22.4996 19.9984 22.4996C19.0784 22.4996 18.3317 21.7546 18.3317 20.833ZM22.4984 27.4996C22.4984 28.8796 21.3784 29.9996 19.9984 29.9996C18.6184 29.9996 17.4984 28.8796 17.4984 27.4996C17.4984 26.1196 18.6184 24.9996 19.9984 24.9996C21.3784 24.9996 22.4984 26.1196 22.4984 27.4996Z" fill="white"/>
</g>
<defs>
<clipPath id="clip0_5680_321317">
<rect width="40" height="40" fill="white"/>
</clipPath>
</defs>
</svg>
