<svg width="20" height="20" viewBox="0 0 20 20" fill="none" xmlns="http://www.w3.org/2000/svg">
<g clip-path="url(#clip0_5680_319995)">
<path d="M10 0C8.02219 0 6.08879 0.58649 4.4443 1.6853C2.79981 2.78412 1.51809 4.34591 0.761209 6.17317C0.00433286 8.00043 -0.193701 10.0111 0.192152 11.9509C0.578004 13.8907 1.53041 15.6725 2.92894 17.0711C4.32746 18.4696 6.10929 19.422 8.0491 19.8079C9.98891 20.1937 11.9996 19.9957 13.8268 19.2388C15.6541 18.4819 17.2159 17.2002 18.3147 15.5557C19.4135 13.9112 20 11.9778 20 10C19.9971 7.34872 18.9426 4.80684 17.0679 2.9321C15.1932 1.05736 12.6513 0.00286757 10 0ZM10 18.3333C8.35183 18.3333 6.74066 17.8446 5.37025 16.9289C3.99984 16.0132 2.93174 14.7117 2.30101 13.189C1.67028 11.6663 1.50525 9.99076 1.82679 8.37425C2.14834 6.75774 2.94201 5.27288 4.10745 4.10744C5.27289 2.94201 6.75774 2.14833 8.37425 1.82679C9.99076 1.50525 11.6663 1.67027 13.189 2.301C14.7118 2.93173 16.0132 3.99984 16.9289 5.37025C17.8446 6.74066 18.3333 8.35182 18.3333 10C18.3309 12.2094 17.4522 14.3276 15.8899 15.8899C14.3276 17.4522 12.2094 18.3309 10 18.3333Z" fill="#C5432D"/>
<path d="M9.99935 4.16797C9.77834 4.16797 9.56637 4.25577 9.41009 4.41205C9.25381 4.56833 9.16602 4.78029 9.16602 5.0013V11.668C9.16602 11.889 9.25381 12.1009 9.41009 12.2572C9.56637 12.4135 9.77834 12.5013 9.99935 12.5013C10.2204 12.5013 10.4323 12.4135 10.5886 12.2572C10.7449 12.1009 10.8327 11.889 10.8327 11.668V5.0013C10.8327 4.78029 10.7449 4.56833 10.5886 4.41205C10.4323 4.25577 10.2204 4.16797 9.99935 4.16797Z" fill="#C5432D"/>
<path d="M10.8327 15.0013C10.8327 14.5411 10.4596 14.168 9.99935 14.168C9.53911 14.168 9.16602 14.5411 9.16602 15.0013C9.16602 15.4615 9.53911 15.8346 9.99935 15.8346C10.4596 15.8346 10.8327 15.4615 10.8327 15.0013Z" fill="#C5432D"/>
</g>
<defs>
<clipPath id="clip0_5680_319995">
<rect width="20" height="20" fill="white"/>
</clipPath>
</defs>
</svg>
