<svg width="20" height="20" viewBox="0 0 20 20" fill="none" xmlns="http://www.w3.org/2000/svg">
<g clip-path="url(#clip0_5680_320602)">
<path d="M19.3923 7.85075C18.64 6.61885 17.6911 5.51846 16.5831 4.59325L18.9165 2.25992C19.0683 2.10275 19.1523 1.89225 19.1504 1.67375C19.1485 1.45525 19.0608 1.24624 18.9063 1.09173C18.7518 0.937227 18.5428 0.849586 18.3243 0.847688C18.1058 0.845789 17.8953 0.929784 17.7381 1.08158L15.2006 3.62242C13.6276 2.6881 11.8293 2.20114 9.9998 2.21408C4.84063 2.21408 1.90063 5.74575 0.607299 7.85075C0.207739 8.497 -0.00390625 9.24178 -0.00390625 10.0016C-0.00390625 10.7614 0.207739 11.5062 0.607299 12.1524C1.3596 13.3843 2.30854 14.4847 3.41646 15.4099L1.08313 17.7432C1.00354 17.8201 0.940055 17.9121 0.896381 18.0137C0.852707 18.1154 0.829718 18.2248 0.828757 18.3354C0.827795 18.4461 0.84888 18.5558 0.890781 18.6582C0.932681 18.7606 0.994559 18.8537 1.0728 18.9319C1.15105 19.0102 1.24409 19.072 1.3465 19.1139C1.44892 19.1558 1.55865 19.1769 1.6693 19.176C1.77995 19.175 1.8893 19.152 1.99097 19.1083C2.09264 19.0647 2.18459 19.0012 2.26147 18.9216L4.8048 16.3783C6.37585 17.3124 8.17202 17.8002 9.9998 17.7891C15.159 17.7891 18.099 14.2574 19.3923 12.1524C19.7919 11.5062 20.0035 10.7614 20.0035 10.0016C20.0035 9.24178 19.7919 8.497 19.3923 7.85075ZM2.0273 11.2799C1.78991 10.8958 1.66417 10.4531 1.66417 10.0016C1.66417 9.55002 1.78991 9.10738 2.0273 8.72325C3.13897 6.91825 5.65147 3.88075 9.9998 3.88075C11.3834 3.873 12.7475 4.20645 13.9715 4.85158L12.294 6.52908C11.4939 5.99792 10.5347 5.75991 9.57916 5.85545C8.6236 5.951 7.73052 6.3742 7.05147 7.05325C6.37241 7.7323 5.94921 8.62538 5.85367 9.58094C5.75813 10.5365 5.99613 11.4957 6.5273 12.2957L4.6023 14.2207C3.58155 13.3955 2.7105 12.4007 2.0273 11.2799ZM12.4998 10.0016C12.4998 10.6646 12.2364 11.3005 11.7676 11.7694C11.2987 12.2382 10.6628 12.5016 9.9998 12.5016C9.62856 12.5001 9.26246 12.4147 8.92897 12.2516L12.2498 8.93075C12.4129 9.26425 12.4984 9.63034 12.4998 10.0016ZM7.4998 10.0016C7.4998 9.33854 7.76319 8.70266 8.23203 8.23382C8.70087 7.76497 9.33676 7.50158 9.9998 7.50158C10.371 7.50302 10.7371 7.58849 11.0706 7.75158L7.7498 11.0724C7.58671 10.7389 7.50124 10.3728 7.4998 10.0016ZM17.9723 11.2799C16.8606 13.0849 14.3481 16.1224 9.9998 16.1224C8.61624 16.1302 7.2521 15.7967 6.02813 15.1516L7.70563 13.4741C8.50569 14.0052 9.46488 14.2433 10.4204 14.1477C11.376 14.0522 12.2691 13.629 12.9481 12.9499C13.6272 12.2709 14.0504 11.3778 14.1459 10.4222C14.2415 9.46666 14.0035 8.50747 13.4723 7.70742L15.3973 5.78242C16.418 6.60765 17.2891 7.60246 17.9723 8.72325C18.2097 9.10738 18.3354 9.55002 18.3354 10.0016C18.3354 10.4531 18.2097 10.8958 17.9723 11.2799Z" fill="#3457DC"/>
</g>
<defs>
<clipPath id="clip0_5680_320602">
<rect width="20" height="20" fill="white"/>
</clipPath>
</defs>
</svg>
