<svg width="16" height="16" viewBox="0 0 16 16" fill="none" xmlns="http://www.w3.org/2000/svg">
<g clip-path="url(#clip0_5680_320634)">
<path d="M14.8287 3.51467L12.4853 1.17133C11.73 0.416 10.7253 0 9.65733 0H6.34333C5.27467 0 4.27067 0.416 3.51533 1.17133L1.172 3.514C0.416 4.26933 0 5.274 0 6.34267V9.65667C0 10.7253 0.416 11.73 1.172 12.4853L3.51533 14.8287C4.27067 15.584 5.27533 16 6.34333 16H9.65733C10.726 16 11.73 15.584 12.4853 14.8287L14.8287 12.486C15.5847 11.7307 16.0007 10.726 16.0007 9.65733V6.34333C16.0007 5.27467 15.5847 4.27 14.8287 3.51467ZM14.6673 9.65667C14.6673 10.3693 14.39 11.0387 13.886 11.5427L11.5427 13.886C11.0387 14.3893 10.3693 14.6667 9.65733 14.6667H6.34333C5.63133 14.6667 4.962 14.3893 4.458 13.886L2.11467 11.5427C1.61067 11.0393 1.33333 10.37 1.33333 9.65733V6.34333C1.33333 5.63067 1.61067 4.96133 2.11467 4.45733L4.458 2.114C4.962 1.61067 5.63133 1.33333 6.34333 1.33333H9.65733C10.3693 1.33333 11.0387 1.61067 11.5427 2.114L13.886 4.45733C14.39 4.96067 14.6673 5.63 14.6673 6.34267V9.65667ZM7.334 9.33333V4C7.334 3.632 7.632 3.33333 8.00067 3.33333C8.36933 3.33333 8.66733 3.632 8.66733 4V9.33333C8.66733 9.70133 8.36933 10 8.00067 10C7.632 10 7.334 9.70133 7.334 9.33333ZM9.00067 11.6667C9.00067 12.2187 8.55267 12.6667 8.00067 12.6667C7.44867 12.6667 7.00067 12.2187 7.00067 11.6667C7.00067 11.1147 7.44867 10.6667 8.00067 10.6667C8.55267 10.6667 9.00067 11.1147 9.00067 11.6667Z" fill="white"/>
</g>
<defs>
<clipPath id="clip0_5680_320634">
<rect width="16" height="16" fill="white"/>
</clipPath>
</defs>
</svg>
