<svg width="20" height="20" viewBox="0 0 20 20" fill="none" xmlns="http://www.w3.org/2000/svg">
<g clip-path="url(#clip0_81_20108)">
<path d="M19.9166 9.53064C19.5892 7.01015 18.3143 4.70892 16.3511 3.09467C14.3878 1.48043 11.8836 0.674314 9.34735 0.840179C6.8111 1.00604 4.43318 2.13144 2.69691 3.98762C0.960635 5.8438 -0.00368893 8.29148 -6.03587e-05 10.8331C-0.00486403 12.1936 0.270821 13.5404 0.809785 14.7895C1.34875 16.0386 2.13942 17.1632 3.13244 18.0931C3.89189 18.7963 4.89257 19.1805 5.92744 19.1665H14.0666C15.1599 19.169 16.2103 18.7413 16.9908 17.9756C18.103 16.8935 18.9469 15.5663 19.4549 14.1C19.9629 12.6337 20.121 11.0689 19.9166 9.53064ZM15.8258 16.7806C15.3569 17.2426 14.7248 17.501 14.0666 17.4998H5.92744C5.3185 17.5123 4.72785 17.2914 4.27661 16.8823C3.44934 16.1074 2.79062 15.1703 2.34157 14.1296C1.89251 13.0888 1.66275 11.9666 1.66661 10.8331C1.66743 9.66001 1.91558 8.50023 2.39489 7.42947C2.87419 6.35872 3.57387 5.40106 4.44827 4.61897C5.96756 3.24889 7.94247 2.49345 9.98827 2.49981C10.3152 2.49994 10.6418 2.5183 10.9666 2.55481C12.5296 2.73634 14.0092 3.35694 15.2341 4.34474C16.4589 5.33254 17.3788 6.64712 17.8873 8.13621C18.3958 9.6253 18.472 11.228 18.1072 12.7586C17.7423 14.2892 16.9513 15.6852 15.8258 16.7848V16.7806ZM6.50577 14.404C6.6638 14.5587 6.75389 14.7698 6.75624 14.991C6.75858 15.2121 6.67298 15.4251 6.51827 15.5831C6.36356 15.7412 6.15241 15.8313 5.93128 15.8336C5.71014 15.8359 5.49713 15.7503 5.33911 15.5956C4.39324 14.6691 3.74469 13.4819 3.47611 12.1854C3.20754 10.8889 3.33112 9.54176 3.83109 8.31574C4.33107 7.08972 5.18479 6.04034 6.28344 5.30137C7.38208 4.5624 8.67589 4.16732 9.99994 4.16647C10.3186 4.16638 10.6369 4.18894 10.9524 4.23397C11.0608 4.24959 11.165 4.28641 11.2591 4.34232C11.3532 4.39823 11.4354 4.47214 11.501 4.55982C11.5665 4.6475 11.6142 4.74723 11.6411 4.85333C11.6681 4.95942 11.674 5.06979 11.6583 5.17814C11.6439 5.28708 11.6079 5.39205 11.5524 5.48688C11.4969 5.5817 11.423 5.66447 11.335 5.73031C11.247 5.79616 11.1468 5.84374 11.0402 5.87027C10.9335 5.8968 10.8227 5.90175 10.7141 5.88481C9.67118 5.73584 8.60784 5.92011 7.67585 6.41131C6.74386 6.90251 5.99083 7.67555 5.52424 8.6201C5.05764 9.56465 4.90132 10.6325 5.07759 11.6711C5.25385 12.7098 5.75369 13.6662 6.50577 14.404ZM16.5991 9.88064C16.6441 10.1961 16.6667 10.5144 16.6666 10.8331C16.6693 11.7212 16.493 12.6007 16.1482 13.4191C15.8035 14.2375 15.2973 14.978 14.6599 15.5965C14.5017 15.7512 14.2885 15.8367 14.0672 15.8342C13.8459 15.8317 13.6346 15.7414 13.4799 15.5831C13.3252 15.4249 13.2397 15.2117 13.2422 14.9904C13.2447 14.7691 13.335 14.5578 13.4933 14.4031C14.0563 13.8543 14.4815 13.1801 14.7341 12.4355C14.9867 11.6909 15.0595 10.8971 14.9466 10.119C14.915 9.90006 14.9717 9.67756 15.1041 9.50041C15.2365 9.32327 15.4339 9.20599 15.6529 9.17439C15.8718 9.14278 16.0943 9.19944 16.2714 9.33188C16.4486 9.46433 16.5658 9.66173 16.5974 9.88064H16.5991ZM11.6049 10.4065C11.7052 10.7671 11.6833 11.1508 11.5425 11.4976C11.4017 11.8444 11.15 12.1349 10.8267 12.3235C10.5034 12.5122 10.1268 12.5885 9.75554 12.5406C9.38431 12.4926 9.03943 12.323 8.77475 12.0583C8.51007 11.7936 8.3405 11.4488 8.29252 11.0775C8.24454 10.7063 8.32085 10.3297 8.50953 10.0064C8.69821 9.6831 8.98864 9.43141 9.33547 9.29062C9.68229 9.14982 10.066 9.12785 10.4266 9.22814L13.5774 6.07731C13.6543 5.99771 13.7463 5.93423 13.8479 5.89055C13.9496 5.84688 14.059 5.82389 14.1696 5.82293C14.2803 5.82197 14.39 5.84305 14.4924 5.88495C14.5948 5.92685 14.6879 5.98873 14.7661 6.06698C14.8443 6.14522 14.9062 6.23826 14.9481 6.34068C14.99 6.44309 15.0111 6.55282 15.0101 6.66347C15.0092 6.77412 14.9862 6.88347 14.9425 6.98514C14.8988 7.08681 14.8354 7.17877 14.7558 7.25564L11.6049 10.4065Z" fill="white"/>
</g>
<defs>
<clipPath id="clip0_81_20108">
<rect width="20" height="20" fill="white"/>
</clipPath>
</defs>
</svg>
