<svg width="16" height="16" viewBox="0 0 16 16" fill="none" xmlns="http://www.w3.org/2000/svg">
<g clip-path="url(#clip0_2_221103)">
<path d="M8.00079 1.33352C8.88513 1.33642 9.76011 1.51468 10.5751 1.85797C11.3901 2.20127 12.1289 2.7028 12.7488 3.33352H10.6675C10.4906 3.33352 10.3211 3.40376 10.196 3.52878C10.071 3.6538 10.0008 3.82337 10.0008 4.00018C10.0008 4.177 10.071 4.34656 10.196 4.47159C10.3211 4.59661 10.4906 4.66685 10.6675 4.66685H13.4295C13.7577 4.66667 14.0725 4.53619 14.3047 4.30405C14.5368 4.07192 14.6673 3.75713 14.6675 3.42885V0.666851C14.6675 0.49004 14.5972 0.32047 14.4722 0.195446C14.3472 0.0704219 14.1776 0.000183976 14.0008 0.000183976C13.824 0.000183976 13.6544 0.0704219 13.5294 0.195446C13.4044 0.32047 13.3341 0.49004 13.3341 0.666851V2.05218C12.2322 1.05982 10.8758 0.39379 9.41685 0.128683C7.95786 -0.136424 6.45387 0.00985861 5.07331 0.551149C3.69275 1.09244 2.49013 2.00736 1.60013 3.19347C0.710124 4.37957 0.167881 5.79001 0.0341194 7.26685C0.0255083 7.35969 0.0363299 7.4533 0.0658947 7.54173C0.0954594 7.63015 0.143119 7.71145 0.205837 7.78044C0.268555 7.84943 0.344956 7.9046 0.430171 7.94243C0.515387 7.98027 0.60755 7.99993 0.700786 8.00018C0.863845 8.00226 1.02181 7.94341 1.14376 7.83515C1.26571 7.72688 1.34286 7.57701 1.36012 7.41485C1.50853 5.75535 2.2721 4.21132 3.50084 3.08608C4.72958 1.96083 6.33466 1.33571 8.00079 1.33352Z" fill="#A5A5B2"/>
<path d="M15.3033 8.00005C15.1402 7.99798 14.9822 8.05683 14.8603 8.16509C14.7383 8.27335 14.6612 8.42323 14.6439 8.58539C14.5337 9.85421 14.0619 11.0648 13.2844 12.0735C12.5069 13.0822 11.4563 13.8468 10.2574 14.2764C9.05842 14.7061 7.7614 14.7828 6.52017 14.4975C5.27894 14.2121 4.1456 13.5768 3.2546 12.6667H5.33594C5.51275 12.6667 5.68232 12.5965 5.80734 12.4715C5.93237 12.3464 6.0026 12.1769 6.0026 12.0001C6.0026 11.8232 5.93237 11.6537 5.80734 11.5286C5.68232 11.4036 5.51275 11.3334 5.33594 11.3334H2.57394C2.41134 11.3333 2.25031 11.3653 2.10007 11.4274C1.94983 11.4896 1.81332 11.5808 1.69834 11.6958C1.58337 11.8108 1.49218 11.9473 1.43 12.0975C1.36781 12.2478 1.33585 12.4088 1.33594 12.5714V15.3334C1.33594 15.5102 1.40618 15.6798 1.5312 15.8048C1.65622 15.9298 1.82579 16.0001 2.0026 16.0001C2.17942 16.0001 2.34898 15.9298 2.47401 15.8048C2.59903 15.6798 2.66927 15.5102 2.66927 15.3334V13.9481C3.77116 14.9404 5.12755 15.6064 6.58654 15.8716C8.04553 16.1367 9.54952 15.9904 10.9301 15.4491C12.3106 14.9078 13.5133 13.9929 14.4033 12.8068C15.2933 11.6207 15.8355 10.2102 15.9693 8.73339C15.9779 8.64055 15.9671 8.54693 15.9375 8.45851C15.9079 8.37008 15.8603 8.28879 15.7976 8.2198C15.7348 8.15081 15.6584 8.09564 15.5732 8.0578C15.488 8.01997 15.3965 8.0003 15.3033 8.00005Z" fill="#A5A5B2"/>
</g>
<defs>
<clipPath id="clip0_2_221103">
<rect width="16" height="16" fill="white"/>
</clipPath>
</defs>
</svg>
