<svg width="15" height="12" viewBox="0 0 15 12" fill="none" xmlns="http://www.w3.org/2000/svg">
<path d="M5 5.625H1.31875C1.43491 4.85146 1.71112 4.11066 2.12974 3.4499C2.54837 2.78914 3.1002 2.22295 3.75 1.7875L4.86875 1.0375L4.18125 0L3.0625 0.75C2.1208 1.37755 1.34857 2.22785 0.814333 3.22545C0.280098 4.22305 0.000379429 5.33711 0 6.46875V10.625C0 10.9565 0.131696 11.2745 0.366116 11.5089C0.600537 11.7433 0.918479 11.875 1.25 11.875H5C5.33152 11.875 5.64946 11.7433 5.88388 11.5089C6.1183 11.2745 6.25 10.9565 6.25 10.625V6.875C6.25 6.54348 6.1183 6.22554 5.88388 5.99112C5.64946 5.7567 5.33152 5.625 5 5.625ZM13.75 5.625H10.0688C10.1849 4.85146 10.4611 4.11066 10.8797 3.4499C11.2984 2.78914 11.8502 2.22295 12.5 1.7875L13.6188 1.0375L12.9375 0L11.8125 0.75C10.8708 1.37755 10.0986 2.22785 9.56433 3.22545C9.0301 4.22305 8.75038 5.33711 8.75 6.46875V10.625C8.75 10.9565 8.8817 11.2745 9.11612 11.5089C9.35054 11.7433 9.66848 11.875 10 11.875H13.75C14.0815 11.875 14.3995 11.7433 14.6339 11.5089C14.8683 11.2745 15 10.9565 15 10.625V6.875C15 6.54348 14.8683 6.22554 14.6339 5.99112C14.3995 5.7567 14.0815 5.625 13.75 5.625Z" fill="white"/>
</svg>
