<svg width="24" height="24" viewBox="0 0 24 24" fill="none" xmlns="http://www.w3.org/2000/svg">
<g clip-path="url(#clip0_89_21616)">
<path d="M12.118 20.032L3.11997 23.82C2.83597 23.939 2.53897 23.998 2.24497 23.998C1.66297 23.998 1.09197 23.769 0.660967 23.339C0.0129671 22.691 -0.176033 21.726 0.179967 20.881L3.96797 11.882L12.118 20.032ZM16.208 14.272L9.72897 7.79298C9.09197 7.15498 8.18197 6.87898 7.29897 7.05198C6.41497 7.22598 5.67797 7.82398 5.32797 8.65598L4.80697 9.89398L14.109 19.196L15.347 18.675C16.178 18.325 16.777 17.588 16.95 16.704C17.123 15.819 16.846 14.91 16.209 14.273L16.208 14.272ZM15.796 7.60498C16.526 6.64298 16.93 5.62098 16.998 4.56398C17.17 1.86698 15.203 0.281977 15.12 0.214977C14.69 -0.123023 14.069 -0.0520234 13.724 0.376977C13.38 0.804977 13.449 1.43298 13.874 1.77998C13.924 1.82098 15.106 2.80498 15.002 4.43598C14.96 5.09298 14.691 5.75198 14.204 6.39498C13.87 6.83498 13.956 7.46198 14.396 7.79598C14.577 7.93298 14.789 7.99898 15 7.99898C15.302 7.99898 15.601 7.86198 15.797 7.60298L15.796 7.60498ZM23.576 13.818C24.028 13.5 24.136 12.876 23.817 12.424C23.444 11.895 22.431 11 21 11C20.224 11 19.495 11.24 18.892 11.695C18.451 12.027 18.364 12.655 18.696 13.095C19.029 13.535 19.655 13.624 20.097 13.29C20.353 13.097 20.657 12.999 21 12.999C21.729 12.999 22.16 13.547 22.19 13.586C22.385 13.856 22.69 13.999 23.001 13.999C23.2 13.999 23.401 13.939 23.576 13.816V13.818ZM21 1.50098C21 2.32898 21.672 3.00098 22.5 3.00098C23.328 3.00098 24 2.32898 24 1.50098C24 0.672977 23.328 0.000976562 22.5 0.000976562C21.672 0.000976562 21 0.672977 21 1.50098ZM19 6.50098C19 7.32898 19.672 8.00098 20.5 8.00098C21.328 8.00098 22 7.32898 22 6.50098C22 5.67298 21.328 5.00098 20.5 5.00098C19.672 5.00098 19 5.67298 19 6.50098ZM7.99997 2.49998C7.99997 3.32798 8.67197 3.99998 9.49997 3.99998C10.328 3.99998 11 3.32798 11 2.49998C11 1.67198 10.328 0.999977 9.49997 0.999977C8.67197 0.999977 7.99997 1.67198 7.99997 2.49998ZM20 18.5C20 19.328 20.672 20 21.5 20C22.328 20 23 19.328 23 18.5C23 17.672 22.328 17 21.5 17C20.672 17 20 17.672 20 18.5ZM0.999967 3.49998C0.999967 4.32798 1.67197 4.99998 2.49997 4.99998C3.32797 4.99998 3.99997 4.32798 3.99997 3.49998C3.99997 2.67198 3.32797 1.99998 2.49997 1.99998C1.67197 1.99998 0.999967 2.67198 0.999967 3.49998ZM15 22.5C15 23.328 15.672 24 16.5 24C17.328 24 18 23.328 18 22.5C18 21.672 17.328 21 16.5 21C15.672 21 15 21.672 15 22.5Z" fill="white"/>
</g>
<defs>
<clipPath id="clip0_89_21616">
<rect width="24" height="24" fill="white"/>
</clipPath>
</defs>
</svg>
