<svg width="20" height="20" viewBox="0 0 20 20" fill="none" xmlns="http://www.w3.org/2000/svg">
<path d="M10.8691 10.2951C10.9079 10.2564 10.9387 10.2104 10.9597 10.1598C10.9807 10.1092 10.9915 10.0549 10.9915 10.0001C10.9915 9.9453 10.9807 9.89103 10.9597 9.84041C10.9387 9.78979 10.9079 9.74381 10.8691 9.70511L7.04744 5.88427C6.81294 5.64989 6.68116 5.33195 6.68108 5.0004C6.681 4.66885 6.81263 4.35085 7.04702 4.11636C7.2814 3.88186 7.59934 3.75008 7.93089 3.75C8.26244 3.74992 8.58044 3.88155 8.81494 4.11594L12.6366 7.93761C13.1826 8.48514 13.4893 9.22684 13.4893 10.0001C13.4893 10.7734 13.1826 11.5151 12.6366 12.0626L8.81494 15.8843C8.58044 16.1187 8.26244 16.2503 7.93089 16.2502C7.59934 16.2501 7.2814 16.1184 7.04702 15.8839C6.81263 15.6494 6.681 15.3314 6.68108 14.9998C6.68116 14.6683 6.81294 14.3503 7.04744 14.1159L10.8691 10.2951Z" fill="#F7F7F7"/>
</svg>
