<svg width="24" height="24" viewBox="0 0 24 24" fill="none" xmlns="http://www.w3.org/2000/svg">
<g clip-path="url(#clip0_89_21599)">
<path d="M18 12C14.691 12 12 14.691 12 18C12 21.309 14.691 24 18 24C21.309 24 24 21.309 24 18C24 14.691 21.309 12 18 12ZM22 18C22 18.74 21.784 19.424 21.433 20.019L15.981 14.566C16.576 14.215 17.26 13.999 18 13.999C20.206 13.999 22 15.794 22 18ZM14 18C14 17.26 14.216 16.576 14.567 15.981L20.019 21.434C19.424 21.785 18.74 22.001 18 22.001C15.794 22.001 14 20.206 14 18ZM9 12C12.309 12 15 9.309 15 6C15 2.691 12.309 0 9 0C5.691 0 3 2.691 3 6C3 9.309 5.691 12 9 12ZM12.721 24H1C0.447 24 0 23.552 0 23C0 18.038 4.037 14 9 14C9.67 14 10.321 14.079 10.95 14.219C10.345 15.345 10 16.632 10 18C10 20.393 11.056 22.534 12.721 24Z" fill="white"/>
</g>
<defs>
<clipPath id="clip0_89_21599">
<rect width="24" height="24" fill="white"/>
</clipPath>
</defs>
</svg>
