<svg width="14" height="16" viewBox="0 0 14 16" fill="none" xmlns="http://www.w3.org/2000/svg">
<path d="M11.966 3.69067L9.64333 1.36667C8.76133 0.485333 7.58933 0 6.34333 0H3.33333C1.49533 0 0 1.49533 0 3.33333V12.6667C0 14.5047 1.49533 16 3.33333 16H10C11.838 16 13.3333 14.5047 13.3333 12.6667V6.99C13.3333 5.74267 12.8473 4.572 11.966 3.69067ZM11.0233 4.634C11.2353 4.84533 11.4147 5.08067 11.56 5.334H8.666C8.298 5.334 7.99933 5.03467 7.99933 4.66733V1.77267C8.25267 1.918 8.488 2.09733 8.7 2.30933L11.0233 4.634ZM12 12.6673C12 13.77 11.1027 14.6673 10 14.6673H3.33333C2.23067 14.6673 1.33333 13.77 1.33333 12.6673V3.33333C1.33333 2.23067 2.23067 1.33333 3.33333 1.33333H6.34333C6.452 1.33333 6.56 1.33867 6.66667 1.34867V4.66667C6.66667 5.76933 7.564 6.66667 8.66667 6.66667H11.9847C11.9947 6.77333 12 6.88133 12 6.99V12.6673ZM9.138 10.7373C9.39867 10.9973 9.39867 11.4193 9.138 11.68L8.06267 12.756C7.678 13.1407 7.172 13.3333 6.66667 13.3333C6.16133 13.3333 5.65533 13.1407 5.27067 12.756L4.19533 11.68C3.93467 11.4193 3.93467 10.9973 4.19533 10.7373C4.456 10.4767 4.87733 10.4767 5.138 10.7373L6 11.5993V8.66733C6 8.29933 6.298 8.00067 6.66667 8.00067C7.03533 8.00067 7.33333 8.29933 7.33333 8.66733V11.5993L8.19533 10.7373C8.456 10.4767 8.87733 10.4767 9.138 10.7373Z" fill="#3457DC"/>
</svg>
