<svg width="13" height="13" viewBox="0 0 13 13" fill="none" xmlns="http://www.w3.org/2000/svg">
<path d="M8.66659 11.375V10.2917C8.66659 9.71703 8.43831 9.16593 8.03198 8.7596C7.62565 8.35327 7.07455 8.125 6.49992 8.125H3.24992C2.67528 8.125 2.12418 8.35327 1.71785 8.7596C1.31153 9.16593 1.08325 9.71703 1.08325 10.2917V11.375" stroke="#7B829D" stroke-width="1.08333" stroke-linecap="round" stroke-linejoin="round"/>
<path d="M4.87492 5.95833C6.07154 5.95833 7.04159 4.98828 7.04159 3.79167C7.04159 2.59505 6.07154 1.625 4.87492 1.625C3.6783 1.625 2.70825 2.59505 2.70825 3.79167C2.70825 4.98828 3.6783 5.95833 4.87492 5.95833Z" stroke="#7B829D" stroke-width="1.08333" stroke-linecap="round" stroke-linejoin="round"/>
<path d="M11.9167 11.3749V10.2916C11.9164 9.8115 11.7566 9.34515 11.4625 8.96573C11.1684 8.58632 10.7566 8.31533 10.2917 8.19531" stroke="#7B829D" stroke-width="1.08333" stroke-linecap="round" stroke-linejoin="round"/>
<path d="M8.66675 1.69531C9.13281 1.81464 9.54589 2.08569 9.84089 2.46573C10.1359 2.84577 10.296 3.31318 10.296 3.79427C10.296 4.27536 10.1359 4.74277 9.84089 5.12281C9.54589 5.50285 9.13281 5.7739 8.66675 5.89323" stroke="#7B829D" stroke-width="1.08333" stroke-linecap="round" stroke-linejoin="round"/>
</svg>
