<svg width="13" height="16" viewBox="0 0 13 16" fill="none" xmlns="http://www.w3.org/2000/svg">
<path d="M12.0235 9.992L11.2235 8.664C11.0555 8.368 10.9035 7.808 10.9035 7.48V5.456C10.9035 3.576 9.79952 1.952 8.20752 1.192C7.79152 0.456 7.02352 0 6.14352 0C5.27152 0 4.48752 0.472 4.07152 1.216C2.51152 1.992 1.43152 3.6 1.43152 5.456V7.48C1.43152 7.808 1.27952 8.368 1.11152 8.656L0.303517 9.992C-0.0164831 10.528 -0.0884833 11.12 0.111517 11.664C0.303517 12.2 0.759517 12.616 1.35152 12.816C2.90352 13.344 4.53552 13.6 6.16752 13.6C7.79952 13.6 9.43152 13.344 10.9835 12.824C11.5435 12.64 11.9755 12.216 12.1835 11.664C12.3915 11.112 12.3355 10.504 12.0235 9.992Z" fill="white"/>
<path d="M8.41062 14.4078C8.07463 15.3358 7.18663 15.9998 6.14663 15.9998C5.51462 15.9998 4.89062 15.7438 4.45062 15.2878C4.19462 15.0478 4.00263 14.7278 3.89062 14.3998C3.99463 14.4158 4.09862 14.4238 4.21062 14.4398C4.39462 14.4638 4.58662 14.4878 4.77862 14.5038C5.23462 14.5438 5.69863 14.5678 6.16263 14.5678C6.61863 14.5678 7.07463 14.5438 7.52263 14.5038C7.69063 14.4878 7.85863 14.4798 8.01863 14.4558C8.14663 14.4398 8.27463 14.4238 8.41062 14.4078Z" fill="white"/>
</svg>
