<svg width="16" height="16" viewBox="0 0 16 16" fill="none" xmlns="http://www.w3.org/2000/svg">
<path d="M12.3333 0.666664H3.66667C1.64133 0.666664 0 2.308 0 4.33333V11.6667C0 13.6887 1.64467 15.3333 3.66667 15.3333H12.3333C14.3553 15.3333 16 13.6887 16 11.6667V4.33333C16 2.308 14.3587 0.666664 12.3333 0.666664ZM6.33333 2C6.88533 2 7.33333 2.448 7.33333 3C7.33333 3.552 6.88533 4 6.33333 4C5.78133 4 5.33333 3.552 5.33333 3C5.33333 2.448 5.78133 2 6.33333 2ZM3 2C3.552 2 4 2.448 4 3C4 3.552 3.552 4 3 4C2.448 4 2 3.552 2 3C2 2.448 2.448 2 3 2ZM14 11.6667C14 12.5853 13.252 13.3333 12.3333 13.3333H3.66667C2.748 13.3333 2 12.5853 2 11.6667V5.33333H14V11.6667ZM3.33333 7.66666C3.33333 7.114 3.78067 6.66666 4.33333 6.66666H7.66667C8.21933 6.66666 8.66667 7.114 8.66667 7.66666C8.66667 8.21933 8.21933 8.66666 7.66667 8.66666H4.33333C3.78067 8.66666 3.33333 8.21933 3.33333 7.66666ZM3.33333 11C3.33333 10.4473 3.78067 10 4.33333 10H7.66667C8.21933 10 8.66667 10.4473 8.66667 11C8.66667 11.5527 8.21933 12 7.66667 12H4.33333C3.78067 12 3.33333 11.5527 3.33333 11ZM10 11V7.66666C10 7.114 10.4473 6.66666 11 6.66666H11.6667C12.2193 6.66666 12.6667 7.114 12.6667 7.66666V11C12.6667 11.5527 12.2193 12 11.6667 12H11C10.4473 12 10 11.5527 10 11Z" fill="white"/>
</svg>
