<svg width="28" height="28" viewBox="0 0 28 28" fill="none" xmlns="http://www.w3.org/2000/svg">
<path d="M21.5001 7.33333H18.9167C18.7233 6.39284 18.2116 5.54779 17.4678 4.9406C16.724 4.33341 15.7936 4.00121 14.8334 4L13.1667 4C12.2066 4.00121 11.2762 4.33341 10.5324 4.9406C9.78857 5.54779 9.27683 6.39284 9.08341 7.33333H6.50008C6.27907 7.33333 6.06711 7.42113 5.91083 7.57741C5.75455 7.73369 5.66675 7.94565 5.66675 8.16667C5.66675 8.38768 5.75455 8.59964 5.91083 8.75592C6.06711 8.9122 6.27907 9 6.50008 9H7.33341V19.8333C7.33474 20.938 7.77415 21.997 8.55526 22.7782C9.33638 23.5593 10.3954 23.9987 11.5001 24H16.5001C17.6047 23.9987 18.6638 23.5593 19.4449 22.7782C20.226 21.997 20.6654 20.938 20.6667 19.8333V9H21.5001C21.7211 9 21.9331 8.9122 22.0893 8.75592C22.2456 8.59964 22.3334 8.38768 22.3334 8.16667C22.3334 7.94565 22.2456 7.73369 22.0893 7.57741C21.9331 7.42113 21.7211 7.33333 21.5001 7.33333ZM13.1667 5.66667H14.8334C15.3503 5.6673 15.8544 5.82781 16.2764 6.1262C16.6985 6.42459 17.0179 6.84624 17.1909 7.33333H10.8092C10.9822 6.84624 11.3017 6.42459 11.7237 6.1262C12.1458 5.82781 12.6499 5.6673 13.1667 5.66667ZM19.0001 19.8333C19.0001 20.4964 18.7367 21.1323 18.2678 21.6011C17.799 22.0699 17.1631 22.3333 16.5001 22.3333H11.5001C10.837 22.3333 10.2012 22.0699 9.73231 21.6011C9.26347 21.1323 9.00008 20.4964 9.00008 19.8333V9H19.0001V19.8333Z" fill="#C5432D"/>
<path d="M12.3333 19C12.5543 19 12.7663 18.9122 12.9226 18.7559C13.0789 18.5996 13.1667 18.3877 13.1667 18.1667V13.1667C13.1667 12.9457 13.0789 12.7337 12.9226 12.5774C12.7663 12.4211 12.5543 12.3333 12.3333 12.3333C12.1123 12.3333 11.9004 12.4211 11.7441 12.5774C11.5878 12.7337 11.5 12.9457 11.5 13.1667V18.1667C11.5 18.3877 11.5878 18.5996 11.7441 18.7559C11.9004 18.9122 12.1123 19 12.3333 19Z" fill="#C5432D"/>
<path d="M15.6666 19C15.8876 19 16.0996 18.9122 16.2558 18.7559C16.4121 18.5996 16.4999 18.3877 16.4999 18.1667V13.1667C16.4999 12.9457 16.4121 12.7337 16.2558 12.5774C16.0996 12.4211 15.8876 12.3333 15.6666 12.3333C15.4456 12.3333 15.2336 12.4211 15.0773 12.5774C14.921 12.7337 14.8333 12.9457 14.8333 13.1667V18.1667C14.8333 18.3877 14.921 18.5996 15.0773 18.7559C15.2336 18.9122 15.4456 19 15.6666 19Z" fill="#C5432D"/>
</svg>
