<svg width="28" height="28" viewBox="0 0 28 28" fill="none" xmlns="http://www.w3.org/2000/svg">
<g clip-path="url(#clip0_159_1240)">
<path d="M19.5468 4.775L9.38676 14.935C8.99872 15.321 8.69108 15.78 8.48167 16.2857C8.27225 16.7914 8.16522 17.3335 8.16676 17.8808V19C8.16676 19.221 8.25456 19.433 8.41084 19.5893C8.56712 19.7455 8.77908 19.8333 9.0001 19.8333H10.1193C10.6666 19.8349 11.2087 19.7278 11.7144 19.5184C12.2201 19.309 12.6791 19.0014 13.0651 18.6133L23.2251 8.45333C23.7121 7.96514 23.9856 7.30373 23.9856 6.61417C23.9856 5.9246 23.7121 5.26319 23.2251 4.775C22.7298 4.30158 22.0711 4.03737 21.3859 4.03737C20.7008 4.03737 20.042 4.30158 19.5468 4.775ZM22.0468 7.275L11.8868 17.435C11.4169 17.902 10.7818 18.1649 10.1193 18.1667H9.83343V17.8808C9.83517 17.2183 10.0981 16.5832 10.5651 16.1133L20.7251 5.95333C20.9031 5.7833 21.1398 5.68841 21.3859 5.68841C21.6321 5.68841 21.8688 5.7833 22.0468 5.95333C22.2217 6.12876 22.32 6.36641 22.32 6.61417C22.32 6.86192 22.2217 7.09957 22.0468 7.275Z" fill="#3457DC"/>
<path d="M23.1667 11.4825C22.9457 11.4825 22.7337 11.5703 22.5774 11.7266C22.4211 11.8829 22.3333 12.0948 22.3333 12.3158V16.5H19C18.337 16.5 17.7011 16.7634 17.2322 17.2322C16.7634 17.7011 16.5 18.337 16.5 19V22.3333H8.16667C7.50363 22.3333 6.86774 22.0699 6.3989 21.6011C5.93006 21.1323 5.66667 20.4964 5.66667 19.8333V8.16667C5.66667 7.50363 5.93006 6.86774 6.3989 6.3989C6.86774 5.93006 7.50363 5.66667 8.16667 5.66667H15.7017C15.9227 5.66667 16.1346 5.57887 16.2909 5.42259C16.4472 5.26631 16.535 5.05435 16.535 4.83333C16.535 4.61232 16.4472 4.40036 16.2909 4.24408C16.1346 4.0878 15.9227 4 15.7017 4H8.16667C7.062 4.00132 6.00297 4.44073 5.22185 5.22185C4.44074 6.00296 4.00132 7.062 4 8.16667L4 19.8333C4.00132 20.938 4.44074 21.997 5.22185 22.7782C6.00297 23.5593 7.062 23.9987 8.16667 24H17.6192C18.1666 24.0016 18.7089 23.8945 19.2147 23.6851C19.7205 23.4757 20.1797 23.1681 20.5658 22.78L22.7792 20.565C23.1673 20.1791 23.475 19.72 23.6846 19.2143C23.8941 18.7087 24.0013 18.1665 24 17.6192V12.3158C24 12.0948 23.9122 11.8829 23.7559 11.7266C23.5996 11.5703 23.3877 11.4825 23.1667 11.4825ZM19.3875 21.6017C19.0525 21.9358 18.6289 22.1672 18.1667 22.2683V19C18.1667 18.779 18.2545 18.567 18.4107 18.4107C18.567 18.2545 18.779 18.1667 19 18.1667H22.2708C22.1677 18.6279 21.9367 19.0508 21.6042 19.3867L19.3875 21.6017Z" fill="#3457DC"/>
</g>
<defs>
<clipPath id="clip0_159_1240">
<rect width="20" height="20" fill="white" transform="translate(4 4)"/>
</clipPath>
</defs>
</svg>
