<svg width="24" height="24" viewBox="0 0 24 24" fill="none" xmlns="http://www.w3.org/2000/svg">
<path d="M16.4735 9.47332C16.4116 9.41084 16.3378 9.36124 16.2566 9.32739C16.1753 9.29355 16.0882 9.27612 16.0002 9.27612C15.9122 9.27612 15.8251 9.29355 15.7438 9.32739C15.6626 9.36124 15.5888 9.41084 15.5269 9.47332L12.4735 12.5267C12.4116 12.5891 12.3378 12.6387 12.2566 12.6726C12.1753 12.7064 12.0882 12.7239 12.0002 12.7239C11.9122 12.7239 11.8251 12.7064 11.7438 12.6726C11.6626 12.6387 11.5888 12.5891 11.5269 12.5267L8.47354 9.47332C8.41156 9.41084 8.33783 9.36124 8.25659 9.32739C8.17535 9.29355 8.08821 9.27612 8.0002 9.27612C7.91219 9.27612 7.82506 9.29355 7.74382 9.32739C7.66258 9.36124 7.58884 9.41084 7.52687 9.47332C7.4027 9.59823 7.33301 9.7672 7.33301 9.94332C7.33301 10.1194 7.4027 10.2884 7.52687 10.4133L10.5869 13.4733C10.9619 13.8479 11.4702 14.0582 12.0002 14.0582C12.5302 14.0582 13.0385 13.8479 13.4135 13.4733L16.4735 10.4133C16.5977 10.2884 16.6674 10.1194 16.6674 9.94332C16.6674 9.7672 16.5977 9.59823 16.4735 9.47332Z" fill="#3457DC"/>
</svg>
