<svg width="24" height="24" viewBox="0 0 24 24" fill="none" xmlns="http://www.w3.org/2000/svg">
<g clip-path="url(#clip0_119_1697)">
<path d="M17.9997 6.66667H15.933C15.7783 5.91428 15.3689 5.23823 14.7738 4.75248C14.1788 4.26673 13.4345 4.00097 12.6663 4L11.333 4C10.5649 4.00097 9.82055 4.26673 9.22551 4.75248C8.63046 5.23823 8.22107 5.91428 8.06634 6.66667H5.99967C5.82286 6.66667 5.65329 6.7369 5.52827 6.86193C5.40325 6.98695 5.33301 7.15652 5.33301 7.33333C5.33301 7.51014 5.40325 7.67971 5.52827 7.80474C5.65329 7.92976 5.82286 8 5.99967 8H6.66634V16.6667C6.6674 17.5504 7.01893 18.3976 7.64382 19.0225C8.26871 19.6474 9.11594 19.9989 9.99967 20H13.9997C14.8834 19.9989 15.7306 19.6474 16.3555 19.0225C16.9804 18.3976 17.3319 17.5504 17.333 16.6667V8H17.9997C18.1765 8 18.3461 7.92976 18.4711 7.80474C18.5961 7.67971 18.6663 7.51014 18.6663 7.33333C18.6663 7.15652 18.5961 6.98695 18.4711 6.86193C18.3461 6.7369 18.1765 6.66667 17.9997 6.66667ZM11.333 5.33333H12.6663C13.0799 5.33384 13.4831 5.46225 13.8208 5.70096C14.1584 5.93967 14.414 6.27699 14.5523 6.66667H9.44701C9.5854 6.27699 9.84094 5.93967 10.1786 5.70096C10.5163 5.46225 10.9195 5.33384 11.333 5.33333ZM15.9997 16.6667C15.9997 17.1971 15.789 17.7058 15.4139 18.0809C15.0388 18.456 14.5301 18.6667 13.9997 18.6667H9.99967C9.46924 18.6667 8.96053 18.456 8.58546 18.0809C8.21039 17.7058 7.99967 17.1971 7.99967 16.6667V8H15.9997V16.6667Z" fill="#C5432D"/>
<path d="M10.6667 16C10.8435 16 11.013 15.9297 11.1381 15.8047C11.2631 15.6797 11.3333 15.5101 11.3333 15.3333V11.3333C11.3333 11.1565 11.2631 10.9869 11.1381 10.8619C11.013 10.7369 10.8435 10.6666 10.6667 10.6666C10.4899 10.6666 10.3203 10.7369 10.1953 10.8619C10.0702 10.9869 10 11.1565 10 11.3333V15.3333C10 15.5101 10.0702 15.6797 10.1953 15.8047C10.3203 15.9297 10.4899 16 10.6667 16Z" fill="#C5432D"/>
<path d="M13.3337 16C13.5105 16 13.68 15.9297 13.8051 15.8047C13.9301 15.6797 14.0003 15.5101 14.0003 15.3333V11.3333C14.0003 11.1565 13.9301 10.9869 13.8051 10.8619C13.68 10.7369 13.5105 10.6666 13.3337 10.6666C13.1568 10.6666 12.9873 10.7369 12.8623 10.8619C12.7372 10.9869 12.667 11.1565 12.667 11.3333V15.3333C12.667 15.5101 12.7372 15.6797 12.8623 15.8047C12.9873 15.9297 13.1568 16 13.3337 16Z" fill="#C5432D"/>
</g>
<defs>
<clipPath id="clip0_119_1697">
<rect width="16" height="16" fill="white" transform="translate(4 4)"/>
</clipPath>
</defs>
</svg>
