<svg width="16" height="17" viewBox="0 0 16 17" fill="none" xmlns="http://www.w3.org/2000/svg">
<path d="M8 4.66667V0.306667C8.60867 0.537333 9.16867 0.892667 9.64333 1.36667L11.966 3.69067C12.4407 4.16467 12.796 4.72467 13.0267 5.33333H8.66667C8.29867 5.33333 8 5.034 8 4.66667ZM7.434 12.6667H3.33333C2.96467 12.6667 2.66667 12.3687 2.66667 12C2.66667 11.6313 2.96467 11.3333 3.33333 11.3333H7.33333V10H3.33333C2.96467 10 2.66667 9.702 2.66667 9.33333C2.66667 8.96467 2.96467 8.66667 3.33333 8.66667H7.356C7.46667 7.81467 7.982 7.07133 8.73533 6.66667H8.66667C7.564 6.66667 6.66667 5.76933 6.66667 4.66667V0.016C6.55933 0.00866667 6.452 0 6.34333 0H3.33333C1.49533 0 0 1.49533 0 3.33333V12.6667C0 14.5047 1.49533 16 3.33333 16H9.65267C8.72533 15.252 7.74533 14.1447 7.434 12.6667ZM12.722 15.9053C13.4907 15.596 16 14.3773 16 11.6907V9.01267C16 8.438 15.6327 7.92933 15.0867 7.74867L12.5433 6.90533C12.408 6.86 12.2593 6.86 12.124 6.90533L9.58067 7.74867C9.03467 7.92933 8.66733 8.438 8.66733 9.01267V11.6907C8.66733 14.0707 11.144 15.4927 11.9007 15.8707C11.9007 15.8707 12.1173 16.01 12.3347 16.01C12.552 16.01 12.722 15.9053 12.722 15.9053Z" fill="white"/>
</svg>
