<svg width="20" height="20" viewBox="0 0 20 20" fill="none" xmlns="http://www.w3.org/2000/svg">
<g clip-path="url(#clip0_81_20092)">
<path d="M10 20C8.625 20 7.5 18.875 7.5 17.5V2.5C7.5 1.125 8.625 0 10 0C11.375 0 12.5 1.125 12.5 2.5V17.5C12.5 18.875 11.375 20 10 20ZM17.5 20C16.125 20 15 18.875 15 17.5V7.5C15 6.125 16.125 5 17.5 5C18.875 5 20 6.125 20 7.5V17.5C20 18.875 18.875 20 17.5 20ZM2.5 20C1.125 20 0 18.875 0 17.5V12.5C0 11.125 1.125 10 2.5 10C3.875 10 5 11.125 5 12.5V17.5C5 18.875 3.875 20 2.5 20Z" fill="white"/>
</g>
<defs>
<clipPath id="clip0_81_20092">
<rect width="20" height="20" fill="white"/>
</clipPath>
</defs>
</svg>
