<svg width="16" height="16" viewBox="0 0 16 16" fill="none" xmlns="http://www.w3.org/2000/svg">
<g clip-path="url(#clip0_81_19798)">
<path d="M12.4753 7.99988H9.33334C8.59696 7.99988 7.99999 7.40291 7.99999 6.66653V3.51588C8.00184 2.89432 7.71456 2.30719 7.22265 1.92722C6.75652 1.5581 6.14534 1.42653 5.56865 1.57122C1.64896 2.54422 -0.73982 6.51057 0.233212 10.4303C0.918743 13.1919 3.14399 15.3051 5.93734 15.8472C9.75327 16.5776 13.4766 14.2051 14.4267 10.4379C14.5719 9.86044 14.4406 9.24832 14.0713 8.78122C13.687 8.29019 13.0989 8.00225 12.4753 7.99988Z" fill="white"/>
<path d="M15.7673 4.9642C15.6151 4.39851 15.3885 3.85554 15.0933 3.34954C14.2055 1.82648 12.7553 0.71282 11.0547 0.248195C10.9426 0.217977 10.692 0.200195 10.692 0.200195C10.6024 0.200227 10.2167 0.200195 9.91133 0.447539C9.46255 0.800695 9.39199 1.2022 9.38533 1.23354C9.36205 1.33185 9.34996 1.43251 9.34933 1.53354V4.66688C9.34933 5.77145 10.2448 6.66688 11.3493 6.66688H14.4953C14.9127 6.66807 15.3056 6.46991 15.5527 6.13354C15.7354 5.88713 15.8294 5.58613 15.8193 5.27954C15.814 5.17279 15.7966 5.06698 15.7673 4.9642Z" fill="white"/>
</g>
<defs>
<clipPath id="clip0_81_19798">
<rect width="16" height="16" fill="white"/>
</clipPath>
</defs>
</svg>
