<svg width="16" height="16" viewBox="0 0 16 16" fill="none" xmlns="http://www.w3.org/2000/svg">
<g clip-path="url(#clip0_81_19830)">
<path d="M13.6258 9.992L12.8258 8.664C12.6578 8.368 12.5058 7.808 12.5058 7.48V5.456C12.5058 3.576 11.4018 1.952 9.80978 1.192C9.39378 0.456 8.62578 0 7.74578 0C6.87378 0 6.08978 0.472 5.67378 1.216C4.11378 1.992 3.03378 3.6 3.03378 5.456V7.48C3.03378 7.808 2.88178 8.368 2.71378 8.656L1.90578 9.992C1.58578 10.528 1.51378 11.12 1.71378 11.664C1.90578 12.2 2.36178 12.616 2.95378 12.816C4.50578 13.344 6.13778 13.6 7.76978 13.6C9.40178 13.6 11.0338 13.344 12.5858 12.824C13.1458 12.64 13.5778 12.216 13.7858 11.664C13.9938 11.112 13.9378 10.504 13.6258 9.992Z" fill="white"/>
<path d="M10.0129 14.4079C9.67689 15.3359 8.78889 15.9999 7.74889 15.9999C7.11689 15.9999 6.49289 15.7439 6.05289 15.2879C5.79689 15.0479 5.60489 14.7279 5.49289 14.3999C5.59689 14.4159 5.70089 14.4239 5.81289 14.4399C5.99689 14.4639 6.18889 14.4879 6.38089 14.5039C6.83689 14.5439 7.30089 14.5679 7.76489 14.5679C8.22089 14.5679 8.67689 14.5439 9.12489 14.5039C9.29289 14.4879 9.46089 14.4799 9.62089 14.4559C9.74889 14.4399 9.87689 14.4239 10.0129 14.4079Z" fill="white"/>
</g>
<defs>
<clipPath id="clip0_81_19830">
<rect width="16" height="16" fill="white"/>
</clipPath>
</defs>
</svg>
