<svg width="16" height="16" viewBox="0 0 16 16" fill="none" xmlns="http://www.w3.org/2000/svg">
<g clip-path="url(#clip0_81_20089)">
<path d="M2.42533 5.99994C2.01333 5.99994 1.69333 5.62794 1.766 5.22261C2.00533 3.88861 2.67 2.64861 3.66933 1.71194C4.95933 0.50194 6.644 -0.101393 8.42 0.0139401C11.7673 0.22994 14.382 3.14394 14.3327 6.62527C14.306 8.50394 12.74 10.0006 10.8607 10.0006H8.906C8.666 10.2313 8.342 10.3746 7.98333 10.3746C7.24667 10.3746 6.65 9.77794 6.65 9.04127C6.65 8.30461 7.24667 7.70794 7.98333 7.70794C8.58867 7.70794 9.094 8.11394 9.25667 8.66727H10.8607C12.018 8.66727 12.9867 7.74527 12.9993 6.58861C13.03 3.82461 10.9693 1.51594 8.334 1.34527C6.93467 1.25861 5.6 1.73061 4.58067 2.68594C3.77467 3.44127 3.25533 4.40861 3.07333 5.47127C3.02 5.78194 2.74 6.00127 2.42533 6.00127V5.99994ZM8 11.3333C5.53667 11.3333 3.40533 12.8613 2.69667 15.1346C2.63333 15.3373 2.67 15.5579 2.796 15.7286C2.922 15.8993 3.12133 15.9999 3.33333 15.9999H12.6667C12.8787 15.9999 13.078 15.8993 13.204 15.7286C13.33 15.5579 13.3667 15.3373 13.3033 15.1346C12.5947 12.8613 10.4633 11.3333 8 11.3333ZM9.956 7.33327H11.5253C11.6153 7.01527 11.6667 6.68061 11.6667 6.33327C11.6667 4.30794 10.0253 2.66661 8 2.66661C5.97467 2.66661 4.33333 4.30794 4.33333 6.33327C4.33333 7.32727 4.73067 8.22727 5.37267 8.88794C5.45333 7.51061 6.58533 6.41527 7.98333 6.41527C8.77733 6.41527 9.47733 6.77594 9.95667 7.33327H9.956Z" fill="white"/>
</g>
<defs>
<clipPath id="clip0_81_20089">
<rect width="16" height="16" fill="white"/>
</clipPath>
</defs>
</svg>
