<svg width="16" height="22" viewBox="0 0 16 22" fill="none" xmlns="http://www.w3.org/2000/svg">
<g clip-path="url(#clip0_99_1832)">
<path d="M8 3C6.41775 3 4.87104 3.46919 3.55544 4.34824C2.23985 5.22729 1.21447 6.47672 0.608967 7.93853C0.00346629 9.40034 -0.15496 11.0089 0.153721 12.5607C0.462403 14.1126 1.22433 15.538 2.34315 16.6569C3.46197 17.7757 4.88743 18.5376 6.43928 18.8463C7.99113 19.155 9.59966 18.9965 11.0615 18.391C12.5233 17.7855 13.7727 16.7602 14.6518 15.4446C15.5308 14.129 16 12.5823 16 11C15.9977 8.87897 15.1541 6.84547 13.6543 5.34568C12.1545 3.84589 10.121 3.00229 8 3ZM8 17.6667C6.68146 17.6667 5.39253 17.2757 4.2962 16.5431C3.19987 15.8106 2.34539 14.7694 1.84081 13.5512C1.33622 12.333 1.2042 10.9926 1.46144 9.6994C1.71867 8.40619 2.35361 7.21831 3.28596 6.28596C4.21831 5.35361 5.4062 4.71867 6.6994 4.46143C7.99261 4.2042 9.33305 4.33622 10.5512 4.8408C11.7694 5.34539 12.8106 6.19987 13.5431 7.2962C14.2757 8.39253 14.6667 9.68146 14.6667 11C14.6647 12.7675 13.9617 14.4621 12.7119 15.7119C11.4621 16.9617 9.76752 17.6647 8 17.6667Z" fill="#FCC841"/>
<path d="M7.99984 9.6665H7.33317C7.15636 9.6665 6.98679 9.73674 6.86177 9.86177C6.73674 9.98679 6.6665 10.1564 6.6665 10.3332C6.6665 10.51 6.73674 10.6796 6.86177 10.8046C6.98679 10.9296 7.15636 10.9998 7.33317 10.9998H7.99984V14.9998C7.99984 15.1766 8.07008 15.3462 8.1951 15.4712C8.32012 15.5963 8.48969 15.6665 8.6665 15.6665C8.84332 15.6665 9.01288 15.5963 9.13791 15.4712C9.26293 15.3462 9.33317 15.1766 9.33317 14.9998V10.9998C9.33317 10.6462 9.19269 10.3071 8.94265 10.057C8.6926 9.80698 8.35346 9.6665 7.99984 9.6665Z" fill="#FCC841"/>
<path d="M8 8.3335C8.55228 8.3335 9 7.88578 9 7.3335C9 6.78121 8.55228 6.3335 8 6.3335C7.44772 6.3335 7 6.78121 7 7.3335C7 7.88578 7.44772 8.3335 8 8.3335Z" fill="#FCC841"/>
</g>
<defs>
<clipPath id="clip0_99_1832">
<rect width="16" height="16" fill="white" transform="translate(0 3)"/>
</clipPath>
</defs>
</svg>
