<svg width="20" height="17" viewBox="0 0 20 17" fill="none" xmlns="http://www.w3.org/2000/svg">
<path d="M15.8333 0H4.16667C1.86917 0 0 1.86917 0 4.16667V12.5C0 14.7975 1.86917 16.6667 4.16667 16.6667H15.8333C18.1308 16.6667 20 14.7975 20 12.5V4.16667C20 1.86917 18.1308 0 15.8333 0ZM1.66667 12.5V4.16667C1.66667 2.78833 2.78833 1.66667 4.16667 1.66667H7.5V15H4.16667C2.78833 15 1.66667 13.8783 1.66667 12.5ZM18.3333 12.5C18.3333 13.8783 17.2117 15 15.8333 15H9.16667V1.66667H15.8333C17.2117 1.66667 18.3333 2.78833 18.3333 4.16667V12.5ZM5.83333 7.5C5.83333 7.96083 5.46083 8.33333 5 8.33333H4.16667C3.70583 8.33333 3.33333 7.96083 3.33333 7.5C3.33333 7.03917 3.70583 6.66667 4.16667 6.66667H5C5.46083 6.66667 5.83333 7.03917 5.83333 7.5ZM5.83333 10.8333C5.83333 11.2942 5.46083 11.6667 5 11.6667H4.16667C3.70583 11.6667 3.33333 11.2942 3.33333 10.8333C3.33333 10.3725 3.70583 10 4.16667 10H5C5.46083 10 5.83333 10.3725 5.83333 10.8333ZM3.33333 4.16667C3.33333 3.70583 3.70583 3.33333 4.16667 3.33333H5C5.46083 3.33333 5.83333 3.70583 5.83333 4.16667C5.83333 4.6275 5.46083 5 5 5H4.16667C3.70583 5 3.33333 4.6275 3.33333 4.16667Z" fill="white"/>
</svg>
