<svg width="14" height="13" viewBox="0 0 14 13" fill="none" xmlns="http://www.w3.org/2000/svg">
<path d="M0.748411 3.90725C0.523827 3.67625 0.529661 3.307 0.760661 3.08241C0.991661 2.85783 1.36149 2.86308 1.58549 3.09466L3.97074 5.55108C4.14983 5.73191 4.39599 5.834 4.65674 5.83458C4.91633 5.83458 5.16074 5.73366 5.34449 5.54991L10.6692 0.173329C10.8955 -0.0565048 11.2647 -0.0576714 11.494 0.169245C11.7232 0.396162 11.725 0.765412 11.4981 0.994079L6.17166 6.37183C5.76566 6.77783 5.22433 7.00066 4.65266 7.00066C4.07983 6.9995 3.54199 6.77491 3.13833 6.36775L0.748411 3.90725ZM13.8285 3.671C13.6004 3.44291 13.2306 3.44408 13.0037 3.67216L5.36958 11.3255C5.14908 11.546 4.85391 11.6673 4.54241 11.6673C4.22974 11.6673 3.93633 11.5437 3.71233 11.3179L0.991077 8.62466C0.761244 8.39833 0.392577 8.3995 0.165661 8.62933C-0.0606727 8.85858 -0.0589227 9.22725 0.169744 9.45416L2.88749 12.1433C3.32791 12.5872 3.91474 12.8322 4.54008 12.834C5.16308 12.834 5.75399 12.5913 6.19499 12.1497L13.8297 4.49583C14.0572 4.26775 14.0566 3.8985 13.8285 3.671Z" fill="#01CBB1"/>
</svg>
